<svg xmlns="http://www.w3.org/2000/svg" xmlns:xlink="http://www.w3.org/1999/xlink" width="500" zoomAndPan="magnify" viewBox="0 0 375 346.49999" height="462" preserveAspectRatio="xMidYMid meet" version="1.0"><defs><clipPath id="06f55495a8"><path d="M 0.269531 0 L 374.730469 0 L 374.730469 346 L 0.269531 346 Z M 0.269531 0 " clip-rule="nonzero"/></clipPath></defs><g clip-path="url(#06f55495a8)"><path fill="#00bf63" d="M 187.425781 55.613281 C 197.304688 74.175781 213.773438 107.257812 225.597656 140.191406 C 215.71875 149.996094 211.601562 169.980469 216.242188 191.386719 C 222.453125 219.082031 241.167969 238.539062 258.230469 234.796875 C 275.148438 230.980469 283.90625 205.53125 277.691406 177.6875 C 272.601562 154.5625 258.679688 137.195312 244.308594 134.277344 C 229.640625 93.335938 208.234375 52.617188 199.773438 37.050781 C 205.238281 29.9375 211.003906 23.953125 217.363281 18.785156 C 233.082031 6.210938 251.644531 0 276.121094 0 C 303.289062 0 327.839844 11.003906 345.652344 28.816406 C 363.46875 46.628906 374.621094 71.179688 374.621094 98.351562 C 374.621094 145.054688 351.566406 191.238281 317.210938 237.195312 C 241.015625 338.761719 176.125 294.152344 114.449219 188.542969 C 124.777344 180.832031 129.71875 167.210938 125.824219 154.1875 L 123.054688 145.207031 L 112.800781 111.300781 L 109.808594 101.492188 C 108.835938 98.125 105.390625 96.253906 102.023438 97.300781 C 98.65625 98.277344 96.785156 101.867188 97.832031 105.238281 L 100.824219 115.042969 L 109.207031 142.960938 C 110.183594 146.179688 108.3125 149.769531 105.09375 150.742188 C 101.722656 151.71875 98.207031 149.847656 97.160156 146.550781 L 88.699219 118.710938 L 85.707031 108.828125 C 84.734375 105.609375 81.289062 103.589844 77.921875 104.710938 C 74.554688 105.683594 72.683594 109.128906 73.730469 112.496094 L 76.726562 122.375 L 85.109375 150.21875 C 86.082031 153.589844 84.210938 157.105469 80.917969 158.152344 C 77.699219 159.128906 74.105469 157.253906 73.132812 153.960938 L 64.675781 126.117188 L 61.679688 116.238281 C 60.707031 112.871094 57.113281 111 53.894531 112.046875 C 50.527344 113.019531 48.65625 116.613281 49.703125 119.980469 L 52.625 129.785156 L 62.953125 163.691406 L 65.648438 172.675781 C 69.765625 186.371094 82.488281 195.128906 96.109375 195.128906 C 140.71875 288.238281 195.132812 329.257812 245.882812 319.527344 C 176.347656 391.753906 103.296875 297.820312 58.011719 237.417969 C 23.285156 191.3125 0.378906 145.128906 0.378906 98.351562 C 0.378906 71.179688 11.382812 46.628906 29.195312 28.816406 C 47.011719 11.003906 71.710938 0 98.878906 0 C 123.355469 0 141.917969 6.210938 157.636719 18.785156 C 168.9375 27.917969 178.445312 40.195312 187.425781 55.613281 Z M 187.425781 55.613281 " fill-opacity="1" fill-rule="nonzero"/></g></svg>